<?xml version="1.0" standalone="no"?><!DOCTYPE svg PUBLIC "-//W3C//DTD SVG 1.1//EN" "http://www.w3.org/Graphics/SVG/1.1/DTD/svg11.dtd"><svg t="1618980107668" class="icon" viewBox="0 0 1024 1024" version="1.1" xmlns="http://www.w3.org/2000/svg" p-id="1263" xmlns:xlink="http://www.w3.org/1999/xlink" width="200" height="200"><defs><style type="text/css"></style></defs><path d="M512.330016 959.876564c-246.532883 0-447.199135-200.667276-447.199135-447.200158 0-246.536976 200.597691-447.200158 447.199135-447.200158 246.660796 0 447.195042 200.663182 447.195042 447.200158C959.525058 759.209288 758.990812 959.876564 512.330016 959.876564L512.330016 959.876564zM512.330016 125.081787c-213.890438 0-387.978359 173.898609-387.978359 387.596665 0 213.688847 174.088944 387.525034 387.978359 387.525034 213.951837 0 388.036687-173.893492 388.036687-387.525034C900.372843 298.980395 726.348368 125.081787 512.330016 125.081787L512.330016 125.081787zM431.129646 758.952438c-5.749958 0-11.434423-2.106987-15.777335-6.581905-8.68787-8.683776-8.68787-22.73991 0-31.555693L622.276081 512.676405 415.480224 304.47248c-8.688893-8.688893-8.688893-22.807449 0-31.688723 8.68787-8.68787 22.744004-8.68787 31.431873 0l238.099816 239.892649L446.784184 752.435001C442.565093 756.846474 436.879604 758.952438 431.129646 758.952438L431.129646 758.952438z" p-id="1264"></path></svg>