<?xml version="1.0" standalone="no"?><!DOCTYPE svg PUBLIC "-//W3C//DTD SVG 1.1//EN" "http://www.w3.org/Graphics/SVG/1.1/DTD/svg11.dtd"><svg t="1618980114263" class="icon" viewBox="0 0 1024 1024" version="1.1" xmlns="http://www.w3.org/2000/svg" p-id="1393" xmlns:xlink="http://www.w3.org/1999/xlink" width="200" height="200"><defs><style type="text/css"></style></defs><path d="M512.325923 65.47727c246.532883 0 447.199135 200.667276 447.199135 447.200158 0 246.536976-200.597691 447.200158-447.199135 447.200158-246.660796 0-447.195042-200.663182-447.195042-447.200158C65.130881 266.143523 265.665127 65.47727 512.325923 65.47727L512.325923 65.47727zM512.325923 900.272048c213.890438 0 387.978359-173.898609 387.978359-387.597689 0.001023-213.688847-174.088944-387.525034-387.978359-387.525034-213.951837 0-388.036687 173.893492-388.036687 387.525034C124.283096 726.372416 298.308595 900.271024 512.325923 900.272048L512.325923 900.272048zM593.527316 266.400373c5.749958 0 11.434423 2.106987 15.777335 6.581905 8.68787 8.683776 8.68787 22.73991 0 31.555693L402.380882 512.676405l206.795856 208.203926c8.688893 8.688893 8.688893 22.807449 0 31.688723-8.68787 8.68787-22.744004 8.68787-31.432896 0L339.644025 512.676405l238.22773-239.758596C582.090846 268.50736 587.777359 266.400373 593.527316 266.400373L593.527316 266.400373z" p-id="1394"></path></svg>